M48
; DRILL file {KiCad 9.0.0} date 2025-11-09T06:32:01-0700
; FORMAT={-:-/ absolute / metric / decimal}
; #@! TF.CreationDate,2025-11-09T06:32:01-07:00
; #@! TF.GenerationSoftware,Kicad,Pcbnew,9.0.0
; #@! TF.FileFunction,Plated,1,2,PTH
FMAT,2
METRIC
; #@! TA.AperFunction,Plated,PTH,ComponentDrill
T1C0.750
; #@! TA.AperFunction,Plated,PTH,ComponentDrill
T2C0.800
; #@! TA.AperFunction,Plated,PTH,ComponentDrill
T3C1.000
; #@! TA.AperFunction,Plated,PTH,ComponentDrill
T4C1.100
; #@! TA.AperFunction,Plated,PTH,ComponentDrill
T5C1.400
%
G90
G05
T1
X155.524Y-94.992
X156.794Y-96.262
X158.064Y-94.992
T2
X114.605Y-100.178
X114.605Y-107.798
X122.565Y-100.19
X122.565Y-102.73
X122.565Y-105.27
X122.565Y-107.81
X123.88Y-95.0
X128.88Y-95.0
X130.185Y-100.19
X130.185Y-102.73
X130.185Y-105.27
X130.185Y-107.81
X133.57Y-95.0
X133.858Y-101.321
X133.96Y-107.899
X141.19Y-95.0
X141.478Y-101.321
X141.58Y-107.899
X145.38Y-95.0
X145.38Y-100.5
X146.38Y-107.5
X150.38Y-95.0
X151.38Y-107.5
X153.0Y-100.5
X157.556Y-101.371
X157.556Y-108.991
T3
X109.023Y-94.996
X109.023Y-97.536
X109.023Y-100.076
X109.023Y-102.616
X109.023Y-105.156
X109.023Y-107.696
X119.38Y-95.0
X119.38Y-97.54
X119.38Y-100.08
T4
X114.88Y-95.5
T5
X165.647Y-104.375
X168.147Y-106.865
X170.652Y-94.365
X173.152Y-104.375
X175.652Y-94.365
X178.157Y-106.865
X180.657Y-104.375
X189.523Y-104.375
X192.023Y-106.865
X194.528Y-94.365
X197.028Y-104.375
X199.528Y-94.365
X202.033Y-106.865
X204.533Y-104.375
M30
