%TF.GenerationSoftware,KiCad,Pcbnew,9.0.0*%
%TF.CreationDate,2025-11-09T06:31:46-07:00*%
%TF.ProjectId,MIDI_PMOD,4d494449-5f50-44d4-9f44-2e6b69636164,rev?*%
%TF.SameCoordinates,Original*%
%TF.FileFunction,Soldermask,Top*%
%TF.FilePolarity,Negative*%
%FSLAX46Y46*%
G04 Gerber Fmt 4.6, Leading zero omitted, Abs format (unit mm)*
G04 Created by KiCad (PCBNEW 9.0.0) date 2025-11-09 06:31:46*
%MOMM*%
%LPD*%
G01*
G04 APERTURE LIST*
G04 Aperture macros list*
%AMRoundRect*
0 Rectangle with rounded corners*
0 $1 Rounding radius*
0 $2 $3 $4 $5 $6 $7 $8 $9 X,Y pos of 4 corners*
0 Add a 4 corners polygon primitive as box body*
4,1,4,$2,$3,$4,$5,$6,$7,$8,$9,$2,$3,0*
0 Add four circle primitives for the rounded corners*
1,1,$1+$1,$2,$3*
1,1,$1+$1,$4,$5*
1,1,$1+$1,$6,$7*
1,1,$1+$1,$8,$9*
0 Add four rect primitives between the rounded corners*
20,1,$1+$1,$2,$3,$4,$5,0*
20,1,$1+$1,$4,$5,$6,$7,0*
20,1,$1+$1,$6,$7,$8,$9,0*
20,1,$1+$1,$8,$9,$2,$3,0*%
G04 Aperture macros list end*
%ADD10C,1.449000*%
%ADD11C,1.600000*%
%ADD12O,1.600000X1.600000*%
%ADD13C,2.390000*%
%ADD14RoundRect,0.102000X-1.050000X1.050000X-1.050000X-1.050000X1.050000X-1.050000X1.050000X1.050000X0*%
%ADD15C,2.304000*%
%ADD16R,1.300000X1.300000*%
%ADD17C,1.300000*%
%ADD18RoundRect,0.250001X-0.899999X-0.899999X0.899999X-0.899999X0.899999X0.899999X-0.899999X0.899999X0*%
%ADD19R,1.600000X1.600000*%
%ADD20RoundRect,0.250000X0.550000X0.550000X-0.550000X0.550000X-0.550000X-0.550000X0.550000X-0.550000X0*%
%ADD21R,1.700000X1.700000*%
%ADD22O,1.700000X1.700000*%
G04 APERTURE END LIST*
D10*
%TO.C,J2*%
X190247300Y-99364800D02*
G75*
G02*
X188798300Y-99364800I-724500J0D01*
G01*
X188798300Y-99364800D02*
G75*
G02*
X190247300Y-99364800I724500J0D01*
G01*
X205257300Y-99364800D02*
G75*
G02*
X203808300Y-99364800I-724500J0D01*
G01*
X203808300Y-99364800D02*
G75*
G02*
X205257300Y-99364800I724500J0D01*
G01*
%TO.C,J1*%
X166371300Y-99364800D02*
G75*
G02*
X164922300Y-99364800I-724500J0D01*
G01*
X164922300Y-99364800D02*
G75*
G02*
X166371300Y-99364800I724500J0D01*
G01*
X181381300Y-99364800D02*
G75*
G02*
X179932300Y-99364800I-724500J0D01*
G01*
X179932300Y-99364800D02*
G75*
G02*
X181381300Y-99364800I724500J0D01*
G01*
%TD*%
D11*
%TO.C,C3*%
X146380000Y-107500000D03*
X151380000Y-107500000D03*
%TD*%
%TO.C,R1*%
X133570000Y-95000000D03*
D12*
X141190000Y-95000000D03*
%TD*%
D13*
%TO.C,J2*%
X204532800Y-99364800D03*
X189522800Y-99364800D03*
D14*
X189522800Y-104374800D03*
D15*
X192022800Y-106864800D03*
X197027800Y-104374800D03*
X202032800Y-106864800D03*
X204532800Y-104374800D03*
X199527800Y-94364800D03*
X194527800Y-94364800D03*
%TD*%
D16*
%TO.C,Q1*%
X158064200Y-94991600D03*
D17*
X156794200Y-96261600D03*
X155524200Y-94991600D03*
%TD*%
D18*
%TO.C,J4*%
X114880000Y-95500000D03*
%TD*%
D19*
%TO.C,D1*%
X133959600Y-107899200D03*
D12*
X141579600Y-107899200D03*
%TD*%
D11*
%TO.C,R4*%
X145380000Y-100500000D03*
D12*
X153000000Y-100500000D03*
%TD*%
D11*
%TO.C,C1*%
X123880000Y-95000000D03*
X128880000Y-95000000D03*
%TD*%
D13*
%TO.C,J1*%
X180656800Y-99364800D03*
X165646800Y-99364800D03*
D14*
X165646800Y-104374800D03*
D15*
X168146800Y-106864800D03*
X173151800Y-104374800D03*
X178156800Y-106864800D03*
X180656800Y-104374800D03*
X175651800Y-94364800D03*
X170651800Y-94364800D03*
%TD*%
D11*
%TO.C,R3*%
X133858000Y-101320600D03*
D12*
X141478000Y-101320600D03*
%TD*%
D20*
%TO.C,U1*%
X130185000Y-107810000D03*
D11*
X130185000Y-105270000D03*
X130185000Y-102730000D03*
X130185000Y-100190000D03*
X122565000Y-100190000D03*
X122565000Y-102730000D03*
X122565000Y-105270000D03*
X122565000Y-107810000D03*
%TD*%
%TO.C,R5*%
X157556200Y-101371400D03*
D12*
X157556200Y-108991400D03*
%TD*%
D21*
%TO.C,J3*%
X109023000Y-107696000D03*
D22*
X109023000Y-105156000D03*
X109023000Y-102616000D03*
X109023000Y-100076000D03*
X109023000Y-97536000D03*
X109023000Y-94996000D03*
%TD*%
D21*
%TO.C,J5*%
X119380000Y-95000000D03*
D22*
X119380000Y-97540000D03*
X119380000Y-100080000D03*
%TD*%
D11*
%TO.C,C2*%
X145380000Y-95000000D03*
X150380000Y-95000000D03*
%TD*%
%TO.C,R2*%
X114604800Y-107797600D03*
D12*
X114604800Y-100177600D03*
%TD*%
M02*
