%TF.GenerationSoftware,KiCad,Pcbnew,9.0.0*%
%TF.CreationDate,2025-11-09T06:31:45-07:00*%
%TF.ProjectId,MIDI_PMOD,4d494449-5f50-44d4-9f44-2e6b69636164,rev?*%
%TF.SameCoordinates,Original*%
%TF.FileFunction,Copper,L2,Bot*%
%TF.FilePolarity,Positive*%
%FSLAX46Y46*%
G04 Gerber Fmt 4.6, Leading zero omitted, Abs format (unit mm)*
G04 Created by KiCad (PCBNEW 9.0.0) date 2025-11-09 06:31:45*
%MOMM*%
%LPD*%
G01*
G04 APERTURE LIST*
G04 Aperture macros list*
%AMRoundRect*
0 Rectangle with rounded corners*
0 $1 Rounding radius*
0 $2 $3 $4 $5 $6 $7 $8 $9 X,Y pos of 4 corners*
0 Add a 4 corners polygon primitive as box body*
4,1,4,$2,$3,$4,$5,$6,$7,$8,$9,$2,$3,0*
0 Add four circle primitives for the rounded corners*
1,1,$1+$1,$2,$3*
1,1,$1+$1,$4,$5*
1,1,$1+$1,$6,$7*
1,1,$1+$1,$8,$9*
0 Add four rect primitives between the rounded corners*
20,1,$1+$1,$2,$3,$4,$5,0*
20,1,$1+$1,$4,$5,$6,$7,0*
20,1,$1+$1,$6,$7,$8,$9,0*
20,1,$1+$1,$8,$9,$2,$3,0*%
G04 Aperture macros list end*
%ADD10C,0.300000*%
%TA.AperFunction,NonConductor*%
%ADD11C,0.300000*%
%TD*%
%TA.AperFunction,ComponentPad*%
%ADD12C,1.600000*%
%TD*%
%TA.AperFunction,ComponentPad*%
%ADD13O,1.600000X1.600000*%
%TD*%
%TA.AperFunction,ComponentPad*%
%ADD14R,2.100000X2.100000*%
%TD*%
%TA.AperFunction,ComponentPad*%
%ADD15C,2.100000*%
%TD*%
%TA.AperFunction,ComponentPad*%
%ADD16R,1.300000X1.300000*%
%TD*%
%TA.AperFunction,ComponentPad*%
%ADD17C,1.300000*%
%TD*%
%TA.AperFunction,ComponentPad*%
%ADD18RoundRect,0.250001X-0.899999X-0.899999X0.899999X-0.899999X0.899999X0.899999X-0.899999X0.899999X0*%
%TD*%
%TA.AperFunction,ComponentPad*%
%ADD19R,1.600000X1.600000*%
%TD*%
%TA.AperFunction,ComponentPad*%
%ADD20RoundRect,0.250000X0.550000X0.550000X-0.550000X0.550000X-0.550000X-0.550000X0.550000X-0.550000X0*%
%TD*%
%TA.AperFunction,ComponentPad*%
%ADD21R,1.700000X1.700000*%
%TD*%
%TA.AperFunction,ComponentPad*%
%ADD22O,1.700000X1.700000*%
%TD*%
%TA.AperFunction,Conductor*%
%ADD23C,0.200000*%
%TD*%
G04 APERTURE END LIST*
D10*
D11*
X193041203Y-110290828D02*
X193755489Y-110290828D01*
X193755489Y-110290828D02*
X193755489Y-108790828D01*
X191898346Y-110290828D02*
X191898346Y-109505114D01*
X191898346Y-109505114D02*
X191969774Y-109362257D01*
X191969774Y-109362257D02*
X192112631Y-109290828D01*
X192112631Y-109290828D02*
X192398346Y-109290828D01*
X192398346Y-109290828D02*
X192541203Y-109362257D01*
X191898346Y-110219400D02*
X192041203Y-110290828D01*
X192041203Y-110290828D02*
X192398346Y-110290828D01*
X192398346Y-110290828D02*
X192541203Y-110219400D01*
X192541203Y-110219400D02*
X192612631Y-110076542D01*
X192612631Y-110076542D02*
X192612631Y-109933685D01*
X192612631Y-109933685D02*
X192541203Y-109790828D01*
X192541203Y-109790828D02*
X192398346Y-109719400D01*
X192398346Y-109719400D02*
X192041203Y-109719400D01*
X192041203Y-109719400D02*
X191898346Y-109647971D01*
X191184060Y-110290828D02*
X191184060Y-109290828D01*
X191184060Y-109576542D02*
X191112631Y-109433685D01*
X191112631Y-109433685D02*
X191041203Y-109362257D01*
X191041203Y-109362257D02*
X190898345Y-109290828D01*
X190898345Y-109290828D02*
X190755488Y-109290828D01*
X190255489Y-110290828D02*
X190255489Y-109290828D01*
X190255489Y-109576542D02*
X190184060Y-109433685D01*
X190184060Y-109433685D02*
X190112632Y-109362257D01*
X190112632Y-109362257D02*
X189969774Y-109290828D01*
X189969774Y-109290828D02*
X189826917Y-109290828D01*
X189469775Y-109290828D02*
X189112632Y-110290828D01*
X188755489Y-109290828D02*
X189112632Y-110290828D01*
X189112632Y-110290828D02*
X189255489Y-110647971D01*
X189255489Y-110647971D02*
X189326918Y-110719400D01*
X189326918Y-110719400D02*
X189469775Y-110790828D01*
X187041204Y-110290828D02*
X187041204Y-108790828D01*
X187041204Y-108790828D02*
X186469775Y-108790828D01*
X186469775Y-108790828D02*
X186326918Y-108862257D01*
X186326918Y-108862257D02*
X186255489Y-108933685D01*
X186255489Y-108933685D02*
X186184061Y-109076542D01*
X186184061Y-109076542D02*
X186184061Y-109290828D01*
X186184061Y-109290828D02*
X186255489Y-109433685D01*
X186255489Y-109433685D02*
X186326918Y-109505114D01*
X186326918Y-109505114D02*
X186469775Y-109576542D01*
X186469775Y-109576542D02*
X187041204Y-109576542D01*
X185684061Y-109290828D02*
X185326918Y-110290828D01*
X184969775Y-109290828D02*
X185326918Y-110290828D01*
X185326918Y-110290828D02*
X185469775Y-110647971D01*
X185469775Y-110647971D02*
X185541204Y-110719400D01*
X185541204Y-110719400D02*
X185684061Y-110790828D01*
X183826918Y-110219400D02*
X183969775Y-110290828D01*
X183969775Y-110290828D02*
X184255490Y-110290828D01*
X184255490Y-110290828D02*
X184398347Y-110219400D01*
X184398347Y-110219400D02*
X184469775Y-110076542D01*
X184469775Y-110076542D02*
X184469775Y-109505114D01*
X184469775Y-109505114D02*
X184398347Y-109362257D01*
X184398347Y-109362257D02*
X184255490Y-109290828D01*
X184255490Y-109290828D02*
X183969775Y-109290828D01*
X183969775Y-109290828D02*
X183826918Y-109362257D01*
X183826918Y-109362257D02*
X183755490Y-109505114D01*
X183755490Y-109505114D02*
X183755490Y-109647971D01*
X183755490Y-109647971D02*
X184469775Y-109790828D01*
X182469776Y-110290828D02*
X182469776Y-109505114D01*
X182469776Y-109505114D02*
X182541204Y-109362257D01*
X182541204Y-109362257D02*
X182684061Y-109290828D01*
X182684061Y-109290828D02*
X182969776Y-109290828D01*
X182969776Y-109290828D02*
X183112633Y-109362257D01*
X182469776Y-110219400D02*
X182612633Y-110290828D01*
X182612633Y-110290828D02*
X182969776Y-110290828D01*
X182969776Y-110290828D02*
X183112633Y-110219400D01*
X183112633Y-110219400D02*
X183184061Y-110076542D01*
X183184061Y-110076542D02*
X183184061Y-109933685D01*
X183184061Y-109933685D02*
X183112633Y-109790828D01*
X183112633Y-109790828D02*
X182969776Y-109719400D01*
X182969776Y-109719400D02*
X182612633Y-109719400D01*
X182612633Y-109719400D02*
X182469776Y-109647971D01*
X181969775Y-109290828D02*
X181398347Y-109290828D01*
X181755490Y-108790828D02*
X181755490Y-110076542D01*
X181755490Y-110076542D02*
X181684061Y-110219400D01*
X181684061Y-110219400D02*
X181541204Y-110290828D01*
X181541204Y-110290828D02*
X181398347Y-110290828D01*
X181112632Y-109290828D02*
X180541204Y-109290828D01*
X180898347Y-108790828D02*
X180898347Y-110076542D01*
X180898347Y-110076542D02*
X180826918Y-110219400D01*
X180826918Y-110219400D02*
X180684061Y-110290828D01*
X180684061Y-110290828D02*
X180541204Y-110290828D01*
X178969775Y-108933685D02*
X178898347Y-108862257D01*
X178898347Y-108862257D02*
X178755490Y-108790828D01*
X178755490Y-108790828D02*
X178398347Y-108790828D01*
X178398347Y-108790828D02*
X178255490Y-108862257D01*
X178255490Y-108862257D02*
X178184061Y-108933685D01*
X178184061Y-108933685D02*
X178112632Y-109076542D01*
X178112632Y-109076542D02*
X178112632Y-109219400D01*
X178112632Y-109219400D02*
X178184061Y-109433685D01*
X178184061Y-109433685D02*
X179041204Y-110290828D01*
X179041204Y-110290828D02*
X178112632Y-110290828D01*
X177184061Y-108790828D02*
X177041204Y-108790828D01*
X177041204Y-108790828D02*
X176898347Y-108862257D01*
X176898347Y-108862257D02*
X176826919Y-108933685D01*
X176826919Y-108933685D02*
X176755490Y-109076542D01*
X176755490Y-109076542D02*
X176684061Y-109362257D01*
X176684061Y-109362257D02*
X176684061Y-109719400D01*
X176684061Y-109719400D02*
X176755490Y-110005114D01*
X176755490Y-110005114D02*
X176826919Y-110147971D01*
X176826919Y-110147971D02*
X176898347Y-110219400D01*
X176898347Y-110219400D02*
X177041204Y-110290828D01*
X177041204Y-110290828D02*
X177184061Y-110290828D01*
X177184061Y-110290828D02*
X177326919Y-110219400D01*
X177326919Y-110219400D02*
X177398347Y-110147971D01*
X177398347Y-110147971D02*
X177469776Y-110005114D01*
X177469776Y-110005114D02*
X177541204Y-109719400D01*
X177541204Y-109719400D02*
X177541204Y-109362257D01*
X177541204Y-109362257D02*
X177469776Y-109076542D01*
X177469776Y-109076542D02*
X177398347Y-108933685D01*
X177398347Y-108933685D02*
X177326919Y-108862257D01*
X177326919Y-108862257D02*
X177184061Y-108790828D01*
X176112633Y-108933685D02*
X176041205Y-108862257D01*
X176041205Y-108862257D02*
X175898348Y-108790828D01*
X175898348Y-108790828D02*
X175541205Y-108790828D01*
X175541205Y-108790828D02*
X175398348Y-108862257D01*
X175398348Y-108862257D02*
X175326919Y-108933685D01*
X175326919Y-108933685D02*
X175255490Y-109076542D01*
X175255490Y-109076542D02*
X175255490Y-109219400D01*
X175255490Y-109219400D02*
X175326919Y-109433685D01*
X175326919Y-109433685D02*
X176184062Y-110290828D01*
X176184062Y-110290828D02*
X175255490Y-110290828D01*
X173898348Y-108790828D02*
X174612634Y-108790828D01*
X174612634Y-108790828D02*
X174684062Y-109505114D01*
X174684062Y-109505114D02*
X174612634Y-109433685D01*
X174612634Y-109433685D02*
X174469777Y-109362257D01*
X174469777Y-109362257D02*
X174112634Y-109362257D01*
X174112634Y-109362257D02*
X173969777Y-109433685D01*
X173969777Y-109433685D02*
X173898348Y-109505114D01*
X173898348Y-109505114D02*
X173826919Y-109647971D01*
X173826919Y-109647971D02*
X173826919Y-110005114D01*
X173826919Y-110005114D02*
X173898348Y-110147971D01*
X173898348Y-110147971D02*
X173969777Y-110219400D01*
X173969777Y-110219400D02*
X174112634Y-110290828D01*
X174112634Y-110290828D02*
X174469777Y-110290828D01*
X174469777Y-110290828D02*
X174612634Y-110219400D01*
X174612634Y-110219400D02*
X174684062Y-110147971D01*
D12*
%TO.P,C3,1*%
%TO.N,Net-(C3-Pad1)*%
X146380000Y-107500000D03*
%TO.P,C3,2*%
%TO.N,GND*%
X151380000Y-107500000D03*
%TD*%
%TO.P,R1,1*%
%TO.N,Net-(D1-K)*%
X133570000Y-95000000D03*
D13*
%TO.P,R1,2*%
%TO.N,Net-(J1-Pad2)*%
X141190000Y-95000000D03*
%TD*%
D14*
%TO.P,J2,1,1*%
%TO.N,unconnected-(J2-Pad1)*%
X189522800Y-104374800D03*
D15*
%TO.P,J2,2,2*%
%TO.N,Net-(C2-Pad1)*%
X192022800Y-106864800D03*
%TO.P,J2,3,3*%
%TO.N,GND*%
X197027800Y-104374800D03*
%TO.P,J2,4,4*%
%TO.N,Net-(C3-Pad1)*%
X202032800Y-106864800D03*
%TO.P,J2,5,5*%
%TO.N,unconnected-(J2-Pad5)*%
X204532800Y-104374800D03*
%TO.P,J2,G1,GND*%
%TO.N,GND*%
X199527800Y-94364800D03*
%TO.P,J2,G2,GND*%
X194527800Y-94364800D03*
%TD*%
D16*
%TO.P,Q1,1,C*%
%TO.N,Net-(Q1-C)*%
X158064200Y-94991600D03*
D17*
%TO.P,Q1,2,B*%
%TO.N,Net-(Q1-B)*%
X156794200Y-96261600D03*
%TO.P,Q1,3,E*%
%TO.N,GND*%
X155524200Y-94991600D03*
%TD*%
D18*
%TO.P,J4,1,Pin_1*%
%TO.N,Net-(J4-Pin_1)*%
X114880000Y-95500000D03*
%TD*%
D19*
%TO.P,D1,1,K*%
%TO.N,Net-(D1-K)*%
X133959600Y-107899200D03*
D13*
%TO.P,D1,2,A*%
%TO.N,Net-(D1-A)*%
X141579600Y-107899200D03*
%TD*%
D12*
%TO.P,R4,1*%
%TO.N,Net-(C3-Pad1)*%
X145380000Y-100500000D03*
D13*
%TO.P,R4,2*%
%TO.N,Net-(Q1-C)*%
X153000000Y-100500000D03*
%TD*%
D12*
%TO.P,C1,1*%
%TO.N,Net-(J3-Pin_1)*%
X123880000Y-95000000D03*
%TO.P,C1,2*%
%TO.N,GND*%
X128880000Y-95000000D03*
%TD*%
D14*
%TO.P,J1,1,1*%
%TO.N,unconnected-(J1-Pad1)*%
X165646800Y-104374800D03*
D15*
%TO.P,J1,2,2*%
%TO.N,Net-(J1-Pad2)*%
X168146800Y-106864800D03*
%TO.P,J1,3,3*%
%TO.N,unconnected-(J1-Pad3)*%
X173151800Y-104374800D03*
%TO.P,J1,4,4*%
%TO.N,Net-(D1-A)*%
X178156800Y-106864800D03*
%TO.P,J1,5,5*%
%TO.N,unconnected-(J1-Pad5)*%
X180656800Y-104374800D03*
%TO.P,J1,G1,GND*%
%TO.N,GND*%
X175651800Y-94364800D03*
%TO.P,J1,G2,GND*%
X170651800Y-94364800D03*
%TD*%
D12*
%TO.P,R3,1*%
%TO.N,Net-(J5-Pin_2)*%
X133858000Y-101320600D03*
D13*
%TO.P,R3,2*%
%TO.N,Net-(C2-Pad1)*%
X141478000Y-101320600D03*
%TD*%
D20*
%TO.P,U1,1,NC*%
%TO.N,unconnected-(U1-NC-Pad1)*%
X130185000Y-107810000D03*
D12*
%TO.P,U1,2,A*%
%TO.N,Net-(D1-K)*%
X130185000Y-105270000D03*
%TO.P,U1,3,C*%
%TO.N,Net-(D1-A)*%
X130185000Y-102730000D03*
%TO.P,U1,4,NC*%
%TO.N,unconnected-(U1-NC-Pad4)*%
X130185000Y-100190000D03*
%TO.P,U1,5,GND*%
%TO.N,GND*%
X122565000Y-100190000D03*
%TO.P,U1,6,VO*%
%TO.N,Net-(J3-Pin_3)*%
X122565000Y-102730000D03*
%TO.P,U1,7,EN*%
%TO.N,unconnected-(U1-EN-Pad7)*%
X122565000Y-105270000D03*
%TO.P,U1,8,VCC*%
%TO.N,Net-(J3-Pin_1)*%
X122565000Y-107810000D03*
%TD*%
%TO.P,R5,1*%
%TO.N,Net-(Q1-B)*%
X157556200Y-101371400D03*
D13*
%TO.P,R5,2*%
%TO.N,Net-(J3-Pin_4)*%
X157556200Y-108991400D03*
%TD*%
D21*
%TO.P,J3,1,Pin_1*%
%TO.N,Net-(J3-Pin_1)*%
X109023000Y-107696000D03*
D22*
%TO.P,J3,2,Pin_2*%
%TO.N,GND*%
X109023000Y-105156000D03*
%TO.P,J3,3,Pin_3*%
%TO.N,Net-(J3-Pin_3)*%
X109023000Y-102616000D03*
%TO.P,J3,4,Pin_4*%
%TO.N,Net-(J3-Pin_4)*%
X109023000Y-100076000D03*
%TO.P,J3,5,Pin_5*%
%TO.N,unconnected-(J3-Pin_5-Pad5)*%
X109023000Y-97536000D03*
%TO.P,J3,6,Pin_6*%
%TO.N,unconnected-(J3-Pin_6-Pad6)*%
X109023000Y-94996000D03*
%TD*%
D21*
%TO.P,J5,1,Pin_1*%
%TO.N,Net-(J3-Pin_1)*%
X119380000Y-95000000D03*
D22*
%TO.P,J5,2,Pin_2*%
%TO.N,Net-(J5-Pin_2)*%
X119380000Y-97540000D03*
%TO.P,J5,3,Pin_3*%
%TO.N,Net-(J4-Pin_1)*%
X119380000Y-100080000D03*
%TD*%
D12*
%TO.P,C2,1*%
%TO.N,Net-(C2-Pad1)*%
X145380000Y-95000000D03*
%TO.P,C2,2*%
%TO.N,GND*%
X150380000Y-95000000D03*
%TD*%
%TO.P,R2,1*%
%TO.N,Net-(J3-Pin_1)*%
X114604800Y-107797600D03*
D13*
%TO.P,R2,2*%
%TO.N,Net-(J3-Pin_3)*%
X114604800Y-100177600D03*
%TD*%
D23*
%TO.N,Net-(D1-A)*%
X132575000Y-102730000D02*
X130185000Y-102730000D01*
X137744200Y-107899200D02*
X132575000Y-102730000D01*
X141579600Y-107899200D02*
X137744200Y-107899200D01*
%TO.N,Net-(J3-Pin_3)*%
X112166400Y-102616000D02*
X114604800Y-100177600D01*
X109023000Y-102616000D02*
X112166400Y-102616000D01*
%TO.N,Net-(J3-Pin_1)*%
X114681000Y-107797600D02*
X114693400Y-107810000D01*
X114693400Y-107810000D02*
X122565000Y-107810000D01*
X109023000Y-107696000D02*
X114503200Y-107696000D01*
X114503200Y-107696000D02*
X114604800Y-107797600D01*
X114604800Y-107797600D02*
X114681000Y-107797600D01*
%TO.N,GND*%
X122565000Y-100190000D02*
X117599000Y-105156000D01*
X117599000Y-105156000D02*
X109023000Y-105156000D01*
%TO.N,Net-(C3-Pad1)*%
X145380000Y-100500000D02*
X145380000Y-106500000D01*
X145380000Y-106500000D02*
X146380000Y-107500000D01*
%TO.N,Net-(J5-Pin_2)*%
X133858000Y-101320600D02*
X133858000Y-99314000D01*
X133858000Y-99314000D02*
X132084000Y-97540000D01*
X119380000Y-97540000D02*
X132084000Y-97540000D01*
%TO.N,Net-(Q1-B)*%
X156794200Y-96261600D02*
X156794200Y-100609400D01*
X156794200Y-100609400D02*
X157556200Y-101371400D01*
%TO.N,Net-(Q1-C)*%
X158064200Y-94991600D02*
X158064200Y-93929200D01*
X158064200Y-93929200D02*
X157835600Y-93700600D01*
X153000000Y-95310400D02*
X153000000Y-100500000D01*
X154609800Y-93700600D02*
X153000000Y-95310400D01*
X157835600Y-93700600D02*
X154609800Y-93700600D01*
%TO.N,Net-(J1-Pad2)*%
X144208600Y-98018600D02*
X146939000Y-98018600D01*
X141190000Y-95000000D02*
X144208600Y-98018600D01*
X146939000Y-98018600D02*
X155785200Y-106864800D01*
X155785200Y-106864800D02*
X168146800Y-106864800D01*
%TD*%
M02*
